<?xml version="1.0" encoding="UTF-8"?>
<svg width="1024" height="1024" viewBox="0 0 1024 1024" fill="none" xmlns="http://www.w3.org/2000/svg">
  <defs>
    <!-- Background gradient -->
    <linearGradient id="bgGradient" x1="512" y1="0" x2="512" y2="1024" gradientUnits="userSpaceOnUse">
      <stop offset="0" stop-color="#0B1220"/>
      <stop offset="1" stop-color="#1B2836"/>
    </linearGradient>

    <!-- Subtle inner gloss -->
    <linearGradient id="topGloss" x1="512" y1="32" x2="512" y2="420" gradientUnits="userSpaceOnUse">
      <stop offset="0" stop-color="#FFFFFF" stop-opacity="0.35"/>
      <stop offset="1" stop-color="#FFFFFF" stop-opacity="0"/>
    </linearGradient>

    <!-- Accent neon green -->
    <linearGradient id="neon" x1="300" y1="460" x2="740" y2="650" gradientUnits="userSpaceOnUse">
      <stop offset="0" stop-color="#7CFFA1"/>
      <stop offset="1" stop-color="#27EDC1"/>
    </linearGradient>

    <!-- Soft radial glow behind glyphs -->
    <radialGradient id="glow" cx="0" cy="0" r="1" gradientUnits="userSpaceOnUse"
                    gradientTransform="translate(512 520) rotate(90) scale(320 360)">
      <stop offset="0" stop-color="#00FF9C" stop-opacity="0.35"/>
      <stop offset="1" stop-color="#00FF9C" stop-opacity="0"/>
    </radialGradient>

    <!-- Outer drop shadow -->
    <filter id="outerShadow" x="-10%" y="-10%" width="120%" height="120%" color-interpolation-filters="sRGB">
      <feDropShadow dx="0" dy="24" stdDeviation="24" flood-color="#000000" flood-opacity="0.35"/>
      <feDropShadow dx="0" dy="2" stdDeviation="6" flood-color="#000000" flood-opacity="0.25"/>
    </filter>

    <!-- Inner shadow (subtle depth) -->
    <filter id="innerShadow" x="-50%" y="-50%" width="200%" height="200%" color-interpolation-filters="sRGB">
      <feOffset dx="0" dy="6"/>
      <feGaussianBlur stdDeviation="16"/>
      <feComposite operator="out" in2="SourceGraphic"/>
      <feColorMatrix type="matrix"
        values="0 0 0 0 0
                0 0 0 0 0
                0 0 0 0 0
                0 0 0 0.45 0"/>
      <feBlend mode="multiply" in2="SourceGraphic"/>
    </filter>

    <!-- Subtle grain for texture -->
    <filter id="grain" x="-20%" y="-20%" width="140%" height="140%" color-interpolation-filters="sRGB">
      <feTurbulence type="fractalNoise" baseFrequency="0.9" numOctaves="2" stitchTiles="stitch" seed="7"/>
      <feColorMatrix type="saturate" values="0"/>
      <feComponentTransfer>
        <feFuncA type="table" tableValues="0 0 0 0.04 0.08 0.1 0.12 0.12 0.1 0"/>
      </feComponentTransfer>
      <feBlend mode="overlay" in2="SourceGraphic"/>
    </filter>
  </defs>

  <!-- Rounded "squircle" base -->
  <g filter="url(#outerShadow)">
    <rect x="32" y="32" width="960" height="960" rx="216" fill="url(#bgGradient)"/>
  </g>

  <!-- Inner depth + gentle texture -->
  <rect x="32" y="32" width="960" height="960" rx="216" filter="url(#innerShadow)" opacity="0.9"/>
  <rect x="32" y="32" width="960" height="960" rx="216" filter="url(#grain)" opacity="0.45"/>

  <!-- Top gloss -->
  <path d="M64 128C64 84.2944 99.2944 49 143 49H881C924.706 49 960 84.2944 960 128V352C960 352 823 288 512 288C201 288 64 352 64 352V128Z"
        fill="url(#topGloss)" opacity="0.7"/>

  <!-- Thin inner stroke -->
  <rect x="44" y="44" width="936" height="936" rx="204" stroke="#FFFFFF" stroke-opacity="0.08" stroke-width="2" fill="none"/>

  <!-- Soft center glow -->
  <ellipse cx="512" cy="530" rx="360" ry="300" fill="url(#glow)"/>

  <!-- Command glyphs group -->
  <g transform="translate(0,-12)">
    <!-- The angle bracket '>' -->
    <path d="M356 460 L520 540 L356 620 L356 574 L450 540 L356 506 Z" fill="url(#neon)"/>
    <!-- Cursor/underscore block -->
    <rect x="548" y="598" width="180" height="24" rx="12" fill="url(#neon)"/>
  </g>

  <!-- Faint scanlines for terminal vibe -->
  <g opacity="0.06">
    <rect x="120" y="380" width="784" height="2" fill="#FFFFFF"/>
    <rect x="120" y="430" width="784" height="2" fill="#FFFFFF"/>
    <rect x="120" y="480" width="784" height="2" fill="#FFFFFF"/>
    <rect x="120" y="530" width="784" height="2" fill="#FFFFFF"/>
    <rect x="120" y="580" width="784" height="2" fill="#FFFFFF"/>
    <rect x="120" y="630" width="784" height="2" fill="#FFFFFF"/>
    <rect x="120" y="680" width="784" height="2" fill="#FFFFFF"/>
  </g>

  <!-- Micro caption (hidden at small sizes, adds realism at large) -->
  <g opacity="0.18">
    <rect x="180" y="720" width="250" height="20" rx="10" fill="#FFFFFF"/>
    <rect x="440" y="720" width="120" height="20" rx="10" fill="#FFFFFF"/>
    <rect x="570" y="720" width="130" height="20" rx="10" fill="#FFFFFF"/>
  </g>

</svg>