<svg xmlns="http://www.w3.org/2000/svg" viewBox="0 0 1080 1080" width="1080" height="1080">
  <rect width="1080" height="1080" fill="#000"/>
  <path fill="#fff" d="M 639.0 838.5 L 514.0 838.5 L 513.5 737.0 L 631.0 736.5 L 632.0 735.5 L 642.0 735.5 L 643.0 734.5 L 651.0 733.5 L 669.0 725.5 L 686.5 711.0 L 693.5 702.0 L 700.5 689.0 L 705.5 670.0 L 705.5 649.0 L 702.5 636.0 L 697.5 626.0 L 697.5 624.0 L 692.5 616.0 L 678.0 600.5 L 666.0 592.5 L 652.0 586.5 L 644.0 584.5 L 631.0 583.5 L 630.0 582.5 L 514.0 582.5 L 513.5 480.0 L 631.0 479.5 L 632.0 478.5 L 641.0 478.5 L 642.0 477.5 L 650.0 476.5 L 661.0 472.5 L 672.0 466.5 L 690.5 449.0 L 700.5 432.0 L 704.5 419.0 L 704.5 414.0 L 705.5 413.0 L 705.5 392.0 L 704.5 391.0 L 704.5 386.0 L 700.5 373.0 L 693.5 360.0 L 682.0 346.5 L 667.0 335.5 L 650.0 328.5 L 642.0 327.5 L 641.0 326.5 L 632.0 326.5 L 631.0 325.5 L 331.0 325.5 L 248.5 242.0 L 249.0 222.5 L 330.0 222.5 L 331.0 221.5 L 635.0 221.5 L 636.0 222.5 L 655.0 223.5 L 656.0 224.5 L 674.0 227.5 L 695.0 234.5 L 716.0 244.5 L 724.0 249.5 L 743.0 263.5 L 754.5 274.0 L 765.5 286.0 L 779.5 305.0 L 793.5 332.0 L 802.5 359.0 L 804.5 374.0 L 805.5 375.0 L 805.5 381.0 L 806.5 382.0 L 806.5 421.0 L 805.5 422.0 L 804.5 434.0 L 800.5 451.0 L 790.5 478.0 L 782.5 493.0 L 772.5 508.0 L 764.5 518.0 L 752.5 530.0 L 762.5 540.0 L 778.5 561.0 L 792.5 587.0 L 800.5 609.0 L 804.5 626.0 L 805.5 639.0 L 806.5 640.0 L 806.5 678.0 L 805.5 679.0 L 805.5 686.0 L 804.5 687.0 L 804.5 692.0 L 801.5 705.0 L 792.5 731.0 L 781.5 752.0 L 761.5 779.0 L 741.0 798.5 L 720.0 813.5 L 691.0 827.5 L 667.0 834.5 L 652.0 836.5 L 651.0 837.5 L 640.0 837.5 L 639.0 838.5 Z"/>
  <path fill="#fff" d="M 445.0 838.5 L 342.5 838.0 L 343.0 389.5 L 445.5 390.0 L 445.0 838.5 Z"/>
</svg>
